{
  "accessors": [
    {
      "bufferView": 2,
      "componentType": 5126,
      "count": 282,
      "max": [
        11.909584999084473,
        15.881272315979004,
        7.651398181915283
      ],
      "min": [
        -0.7520707845687866,
        4.527181625366211,
        0.03937007859349251
      ],
      "type": "VEC3"
    },
    {
      "bufferView": 2,
      "byteOffset": 3384,
      "componentType": 5126,
      "count": 282,
      "max": [
        1.0,
        1.0,
        0.7626683115959167
      ],
      "min": [
        -0.6467897891998291,
        -1.0,
        -0.7626683115959167
      ],
      "type": "VEC3"
    },
    {
      "bufferView": 1,
      "componentType": 5126,
      "count": 282,
      "max": [
        15.802020072937012,
        6.646708965301514
      ],
      "min": [
        -18.374149322509766,
        -3.7154720757826e-06
      ],
      "type": "VEC2"
    },
    {
      "bufferView": 0,
      "componentType": 5125,
      "count": 738,
      "type": "SCALAR"
    },
    {
      "bufferView": 2,
      "byteOffset": 6768,
      "componentType": 5126,
      "count": 504,
      "max": [
        7.971738338470459,
        15.29921817779541,
        0.5905511975288391
      ],
      "min": [
        1.2788255214691162,
        5.850399017333984,
        -1.7763570511584873e-15
      ],
      "type": "VEC3"
    },
    {
      "bufferView": 2,
      "byteOffset": 12816,
      "componentType": 5126,
      "count": 504,
      "max": [
        1.0,
        1.0,
        1.0
      ],
      "min": [
        -1.0,
        -1.0,
        -1.0
      ],
      "type": "VEC3"
    },
    {
      "bufferView": 1,
      "byteOffset": 2256,
      "componentType": 5126,
      "count": 504,
      "max": [
        2.4000000953674316,
        3.5505878925323486
      ],
      "min": [
        -2.4000000953674316,
        -0.05821998044848442
      ],
      "type": "VEC2"
    },
    {
      "bufferView": 0,
      "byteOffset": 2952,
      "componentType": 5125,
      "count": 996,
      "type": "SCALAR"
    },
    {
      "bufferView": 2,
      "byteOffset": 18864,
      "componentType": 5126,
      "count": 736,
      "max": [
        8.878002166748047,
        15.866772651672363,
        1.1811023950576782
      ],
      "min": [
        0.5611785054206848,
        5.348024368286133,
        -1.7763570511584873e-15
      ],
      "type": "VEC3"
    },
    {
      "bufferView": 2,
      "byteOffset": 27696,
      "componentType": 5126,
      "count": 736,
      "max": [
        1.0,
        1.0,
        1.0
      ],
      "min": [
        -0.9829353094100952,
        -1.0,
        -1.0
      ],
      "type": "VEC3"
    },
    {
      "bufferView": 1,
      "byteOffset": 6288,
      "componentType": 5126,
      "count": 736,
      "max": [
        1.0033680200576782,
        1.0593459606170654
      ],
      "min": [
        0.04471876099705696,
        -0.9855520129203796
      ],
      "type": "VEC2"
    },
    {
      "bufferView": 0,
      "byteOffset": 6936,
      "componentType": 5125,
      "count": 1506,
      "type": "SCALAR"
    },
    {
      "bufferView": 2,
      "byteOffset": 36528,
      "componentType": 5126,
      "count": 64,
      "max": [
        7.971738338470459,
        15.29921817779541,
        0.5905511975288391
      ],
      "min": [
        1.2788255214691162,
        5.850399017333984,
        -1.7763570511584873e-15
      ],
      "type": "VEC3"
    },
    {
      "bufferView": 2,
      "byteOffset": 37296,
      "componentType": 5126,
      "count": 64,
      "max": [
        1.474514954580286e-17,
        2.7755583556562794e-16,
        1.0
      ],
      "min": [
        -1.0,
        -2.220446049250313e-16,
        -1.0
      ],
      "type": "VEC3"
    },
    {
      "bufferView": 1,
      "byteOffset": 12176,
      "componentType": 5126,
      "count": 64,
      "max": [
        0.9965459704399109,
        3.004379987716675
      ],
      "min": [
        -0.9491531848907471,
        2.0083649158477783
      ],
      "type": "VEC2"
    },
    {
      "bufferView": 0,
      "byteOffset": 12960,
      "componentType": 5125,
      "count": 162,
      "type": "SCALAR"
    },
    {
      "bufferView": 2,
      "byteOffset": 38064,
      "componentType": 5126,
      "count": 504,
      "max": [
        8.878002166748047,
        15.866772651672363,
        1.1811023950576782
      ],
      "min": [
        0.5611785054206848,
        5.348024368286133,
        0.5905511975288391
      ],
      "type": "VEC3"
    },
    {
      "bufferView": 2,
      "byteOffset": 44112,
      "componentType": 5126,
      "count": 504,
      "max": [
        0.9829353094100952,
        0.9829353094100952,
        1.0
      ],
      "min": [
        -0.9829353094100952,
        -0.9829353094100952,
        -1.0
      ],
      "type": "VEC3"
    },
    {
      "bufferView": 1,
      "byteOffset": 12688,
      "componentType": 5126,
      "count": 504,
      "max": [
        2.4000000953674316,
        3.5505878925323486
      ],
      "min": [
        -2.4000000953674316,
        -0.05821998044848442
      ],
      "type": "VEC2"
    },
    {
      "bufferView": 0,
      "byteOffset": 13608,
      "componentType": 5125,
      "count": 996,
      "type": "SCALAR"
    },
    {
      "bufferView": 2,
      "byteOffset": 50160,
      "componentType": 5126,
      "count": 396,
      "max": [
        12.076056480407715,
        14.913191795349121,
        7.817869186401367
      ],
      "min": [
        1.5748034715652466,
        5.858074188232422,
        0.020572150126099586
      ],
      "type": "VEC3"
    },
    {
      "bufferView": 2,
      "byteOffset": 54912,
      "componentType": 5126,
      "count": 396,
      "max": [
        1.0,
        1.0,
        1.0
      ],
      "min": [
        -0.7626683115959167,
        -1.0,
        -1.0
      ],
      "type": "VEC3"
    },
    {
      "bufferView": 1,
      "byteOffset": 16720,
      "componentType": 5126,
      "count": 396,
      "max": [
        1.0004550218582153,
        1.002105951309204
      ],
      "min": [
        -1.9977699518203735,
        0.006575079169124365
      ],
      "type": "VEC2"
    },
    {
      "bufferView": 0,
      "byteOffset": 17592,
      "componentType": 5125,
      "count": 804,
      "type": "SCALAR"
    },
    {
      "bufferView": 2,
      "byteOffset": 59664,
      "componentType": 5126,
      "count": 64,
      "max": [
        8.565058708190918,
        15.92949104309082,
        2.3622052669525146
      ],
      "min": [
        -0.34533241391181946,
        5.070379734039307,
        1.7716540098190308
      ],
      "type": "VEC3"
    },
    {
      "bufferView": 2,
      "byteOffset": 60432,
      "componentType": 5126,
      "count": 64,
      "max": [
        4.450781605206514e-17,
        2.280264045381004e-16,
        1.0
      ],
      "min": [
        -0.9659258127212524,
        -0.25881901383399963,
        -1.0
      ],
      "type": "VEC3"
    },
    {
      "bufferView": 1,
      "byteOffset": 19888,
      "componentType": 5126,
      "count": 64,
      "max": [
        9.511866569519043,
        3.004309892654419
      ],
      "min": [
        7.521524906158447,
        2.0027480125427246
      ],
      "type": "VEC2"
    },
    {
      "bufferView": 0,
      "byteOffset": 20808,
      "componentType": 5125,
      "count": 162,
      "type": "SCALAR"
    },
    {
      "bufferView": 2,
      "byteOffset": 61200,
      "componentType": 5126,
      "count": 840,
      "max": [
        8.565058708190918,
        15.92949104309082,
        2.3622052669525146
      ],
      "min": [
        -0.34533241391181946,
        5.070379734039307,
        1.7716540098190308
      ],
      "type": "VEC3"
    },
    {
      "bufferView": 2,
      "byteOffset": 71280,
      "componentType": 5126,
      "count": 840,
      "max": [
        0.9659258127212524,
        0.9659258127212524,
        1.0
      ],
      "min": [
        -0.9659258127212524,
        -0.9659258127212524,
        -1.0
      ],
      "type": "VEC3"
    },
    {
      "bufferView": 1,
      "byteOffset": 20400,
      "componentType": 5126,
      "count": 840,
      "max": [
        2.4000000953674316,
        3.5505878925323486
      ],
      "min": [
        -2.4000000953674316,
        -0.05821998044848442
      ],
      "type": "VEC2"
    },
    {
      "bufferView": 0,
      "byteOffset": 21456,
      "componentType": 5125,
      "count": 1668,
      "type": "SCALAR"
    },
    {
      "bufferView": 2,
      "byteOffset": 81360,
      "componentType": 5126,
      "count": 216,
      "max": [
        10.347278594970703,
        15.952740669250488,
        1.771653175354004
      ],
      "min": [
        -0.8635545969009399,
        4.415778160095215,
        1.1811020374298096
      ],
      "type": "VEC3"
    },
    {
      "bufferView": 2,
      "byteOffset": 83952,
      "componentType": 5126,
      "count": 216,
      "max": [
        0.7637960910797119,
        0.7637960910797119,
        1.0
      ],
      "min": [
        -0.7572616338729858,
        -0.7637960910797119,
        -1.0
      ],
      "type": "VEC3"
    },
    {
      "bufferView": 1,
      "byteOffset": 27120,
      "componentType": 5126,
      "count": 216,
      "max": [
        1.0059679746627808,
        -1.9988410472869873
      ],
      "min": [
        -1.0005730390548706,
        -2.9925730228424072
      ],
      "type": "VEC2"
    },
    {
      "bufferView": 0,
      "byteOffset": 28128,
      "componentType": 5125,
      "count": 444,
      "type": "SCALAR"
    },
    {
      "bufferView": 2,
      "byteOffset": 86544,
      "componentType": 5126,
      "count": 36,
      "max": [
        7.874016284942627,
        14.913191795349121,
        3.7401580810546875
      ],
      "min": [
        1.5748034715652466,
        5.858074188232422,
        2.3622050285339355
      ],
      "type": "VEC3"
    },
    {
      "bufferView": 2,
      "byteOffset": 86976,
      "componentType": 5126,
      "count": 36,
      "max": [
        3.7599550991879527e-17,
        0.0,
        1.0
      ],
      "min": [
        -0.9962590932846069,
        0.0,
        -1.0
      ],
      "type": "VEC3"
    },
    {
      "bufferView": 1,
      "byteOffset": 28848,
      "componentType": 5126,
      "count": 36,
      "max": [
        0.7427905797958374,
        0.9985941052436829
      ],
      "min": [
        -1.9935699701309204,
        -0.0030069330241531134
      ],
      "type": "VEC2"
    },
    {
      "bufferView": 0,
      "byteOffset": 29904,
      "componentType": 5125,
      "count": 84,
      "type": "SCALAR"
    }
  ],
  "asset": {
    "extras": {
      "author": "Snowism (https://sketchfab.com/snowvy)",
      "license": "CC-BY-4.0 (http://creativecommons.org/licenses/by/4.0/)",
      "source": "https://sketchfab.com/3d-models/book-6acc8732df2c4b609e5d4ac52b364a24",
      "title": "Book"
    },
    "generator": "Sketchfab-15.86.0",
    "version": "2.0"
  },
  "bufferViews": [
    {
      "buffer": 0,
      "byteLength": 30240,
      "name": "floatBufferViews",
      "target": 34963
    },
    {
      "buffer": 0,
      "byteLength": 29136,
      "byteOffset": 30240,
      "byteStride": 8,
      "name": "floatBufferViews",
      "target": 34962
    },
    {
      "buffer": 0,
      "byteLength": 87408,
      "byteOffset": 59376,
      "byteStride": 12,
      "name": "floatBufferViews",
      "target": 34962
    }
  ],
  "buffers": [
    {
      "byteLength": 146784,
      "uri": "book.bin"
    }
  ],
  "extensionsUsed": [
    "KHR_materials_specular"
  ],
  "images": [
    {
      "uri": "textures/Sketchy_Siding_Straight_baseColor.jpeg"
    },
    {
      "uri": "textures/material_2_baseColor.jpeg"
    },
    {
      "uri": "textures/material_2_specularf0.png"
    },
    {
      "uri": "textures/material_1_baseColor.jpeg"
    },
    {
      "uri": "textures/material_2_0_baseColor.jpeg"
    },
    {
      "uri": "textures/material_3_baseColor.jpeg"
    },
    {
      "uri": "textures/material_4_baseColor.jpeg"
    },
    {
      "uri": "textures/Cover_01_1_baseColor.jpeg"
    },
    {
      "uri": "textures/Cover_01_baseColor.jpeg"
    },
    {
      "uri": "textures/material_3_2_baseColor.jpeg"
    },
    {
      "uri": "textures/material_5_baseColor.jpeg"
    }
  ],
  "materials": [
    {
      "name": "Sketchy_Siding_Straight",
      "pbrMetallicRoughness": {
        "baseColorTexture": {
          "index": 0
        },
        "metallicFactor": 0.0,
        "roughnessFactor": 0.6
      }
    },
    {
      "extensions": {
        "KHR_materials_specular": {
          "specularColorFactor": [
            1.0,
            1.0,
            1.0
          ],
          "specularFactor": 1.0,
          "specularTexture": {
            "index": 2
          }
        }
      },
      "name": "material_2",
      "pbrMetallicRoughness": {
        "baseColorTexture": {
          "index": 1
        },
        "metallicFactor": 0.0,
        "roughnessFactor": 0.6
      }
    },
    {
      "name": "material_1",
      "pbrMetallicRoughness": {
        "baseColorTexture": {
          "index": 3
        },
        "metallicFactor": 0.0,
        "roughnessFactor": 0.6
      }
    },
    {
      "extensions": {
        "KHR_materials_specular": {
          "specularColorFactor": [
            1.0,
            1.0,
            1.0
          ],
          "specularFactor": 1.0,
          "specularTexture": {
            "index": 2
          }
        }
      },
      "name": "material_2_0",
      "pbrMetallicRoughness": {
        "baseColorTexture": {
          "index": 4
        },
        "metallicFactor": 0.0,
        "roughnessFactor": 0.6
      }
    },
    {
      "name": "material_3",
      "pbrMetallicRoughness": {
        "baseColorTexture": {
          "index": 5
        },
        "metallicFactor": 0.0,
        "roughnessFactor": 0.6
      }
    },
    {
      "name": "material_4",
      "pbrMetallicRoughness": {
        "baseColorTexture": {
          "index": 6
        },
        "metallicFactor": 0.0,
        "roughnessFactor": 0.6
      }
    },
    {
      "name": "Cover_01_1",
      "pbrMetallicRoughness": {
        "baseColorTexture": {
          "index": 7
        },
        "metallicFactor": 0.0,
        "roughnessFactor": 0.6
      }
    },
    {
      "name": "Cover_01",
      "pbrMetallicRoughness": {
        "baseColorTexture": {
          "index": 8
        },
        "metallicFactor": 0.0,
        "roughnessFactor": 0.6
      }
    },
    {
      "name": "material_3_2",
      "pbrMetallicRoughness": {
        "baseColorTexture": {
          "index": 9
        },
        "metallicFactor": 0.0,
        "roughnessFactor": 0.6
      }
    },
    {
      "name": "material_5",
      "pbrMetallicRoughness": {
        "baseColorTexture": {
          "index": 10
        },
        "metallicFactor": 0.0,
        "roughnessFactor": 0.6
      }
    }
  ],
  "meshes": [
    {
      "name": "Material3",
      "primitives": [
        {
          "attributes": {
            "NORMAL": 1,
            "POSITION": 0,
            "TEXCOORD_0": 2
          },
          "indices": 3,
          "material": 0,
          "mode": 4
        }
      ]
    },
    {
      "name": "Material2",
      "primitives": [
        {
          "attributes": {
            "NORMAL": 5,
            "POSITION": 4,
            "TEXCOORD_0": 6
          },
          "indices": 7,
          "material": 1,
          "mode": 4
        }
      ]
    },
    {
      "name": "Material2",
      "primitives": [
        {
          "attributes": {
            "NORMAL": 9,
            "POSITION": 8,
            "TEXCOORD_0": 10
          },
          "indices": 11,
          "material": 2,
          "mode": 4
        }
      ]
    },
    {
      "name": "Material3",
      "primitives": [
        {
          "attributes": {
            "NORMAL": 13,
            "POSITION": 12,
            "TEXCOORD_0": 14
          },
          "indices": 15,
          "material": 3,
          "mode": 4
        }
      ]
    },
    {
      "name": "Material3",
      "primitives": [
        {
          "attributes": {
            "NORMAL": 17,
            "POSITION": 16,
            "TEXCOORD_0": 18
          },
          "indices": 19,
          "material": 4,
          "mode": 4
        }
      ]
    },
    {
      "name": "Material2",
      "primitives": [
        {
          "attributes": {
            "NORMAL": 21,
            "POSITION": 20,
            "TEXCOORD_0": 22
          },
          "indices": 23,
          "material": 5,
          "mode": 4
        }
      ]
    },
    {
      "name": "Material3",
      "primitives": [
        {
          "attributes": {
            "NORMAL": 25,
            "POSITION": 24,
            "TEXCOORD_0": 26
          },
          "indices": 27,
          "material": 6,
          "mode": 4
        }
      ]
    },
    {
      "name": "Material3",
      "primitives": [
        {
          "attributes": {
            "NORMAL": 29,
            "POSITION": 28,
            "TEXCOORD_0": 30
          },
          "indices": 31,
          "material": 7,
          "mode": 4
        }
      ]
    },
    {
      "name": "Material2",
      "primitives": [
        {
          "attributes": {
            "NORMAL": 33,
            "POSITION": 32,
            "TEXCOORD_0": 34
          },
          "indices": 35,
          "material": 8,
          "mode": 4
        }
      ]
    },
    {
      "name": "Material2",
      "primitives": [
        {
          "attributes": {
            "NORMAL": 37,
            "POSITION": 36,
            "TEXCOORD_0": 38
          },
          "indices": 39,
          "material": 9,
          "mode": 4
        }
      ]
    }
  ],
  "nodes": [
    {
      "children": [
        1
      ],
      "matrix": [
        1.0,
        0.0,
        0.0,
        0.0,
        0.0,
        2.220446049250313e-16,
        -1.0,
        0.0,
        0.0,
        1.0,
        2.220446049250313e-16,
        0.0,
        0.0,
        0.0,
        0.0,
        1.0
      ],
      "name": "Sketchfab_model"
    },
    {
      "children": [
        2,
        3,
        4,
        5,
        6,
        7,
        8,
        9,
        10,
        11,
        12
      ],
      "name": "Collada visual scene group"
    },
    {
      "mesh": 0,
      "name": "Material3"
    },
    {
      "mesh": 1,
      "name": "Material2"
    },
    {
      "mesh": 2,
      "name": "Material2"
    },
    {
      "mesh": 3,
      "name": "Material3"
    },
    {
      "mesh": 4,
      "name": "Material3"
    },
    {
      "mesh": 5,
      "name": "Material2"
    },
    {
      "mesh": 6,
      "name": "Material3"
    },
    {
      "mesh": 7,
      "name": "Material3"
    },
    {
      "mesh": 8,
      "name": "Material2"
    },
    {
      "mesh": 9,
      "name": "Material2"
    },
    {
      "children": [
        13
      ],
      "name": "SketchUp"
    },
    {
      "children": [
        14
      ],
      "matrix": [
        0.9804237,
        0.1968994,
        -1.387779e-17,
        0.0,
        -0.114526,
        0.5702608,
        0.8134411,
        0.0,
        0.1601661,
        -0.7975169,
        0.5816473,
        0.0,
        8.920465,
        -8.276858,
        15.3432,
        1.0
      ],
      "name": "skp_camera_Last_Saved_SketchUp_View"
    },
    {
      "name": "ID1"
    }
  ],
  "samplers": [
    {
      "magFilter": 9729,
      "minFilter": 9987,
      "wrapS": 10497,
      "wrapT": 10497
    }
  ],
  "scene": 0,
  "scenes": [
    {
      "name": "Sketchfab_Scene",
      "nodes": [
        0
      ]
    }
  ],
  "textures": [
    {
      "sampler": 0,
      "source": 0
    },
    {
      "sampler": 0,
      "source": 1
    },
    {
      "sampler": 0,
      "source": 2
    },
    {
      "sampler": 0,
      "source": 3
    },
    {
      "sampler": 0,
      "source": 4
    },
    {
      "sampler": 0,
      "source": 5
    },
    {
      "sampler": 0,
      "source": 6
    },
    {
      "sampler": 0,
      "source": 7
    },
    {
      "sampler": 0,
      "source": 8
    },
    {
      "sampler": 0,
      "source": 9
    },
    {
      "sampler": 0,
      "source": 10
    }
  ]
}
